<?xml version="1.0" encoding="utf-8"?>


<!-- The icon can be used freely in both personal and commercial projects with no attribution required, but always appreciated. 
You may NOT sub-license, resell, rent, redistribute or otherwise transfer the icon without express written permission from iconmonstr.com -->


<!DOCTYPE svg PUBLIC "-//W3C//DTD SVG 1.1//EN" "http://www.w3.org/Graphics/SVG/1.1/DTD/svg11.dtd">

<svg version="1.1" xmlns="http://www.w3.org/2000/svg" xmlns:xlink="http://www.w3.org/1999/xlink" x="0px" y="0px"

	 width="512px" height="512px" viewBox="0 0 512 512" enable-background="new 0 0 512 512" xml:space="preserve">

<path id="globe-4-icon" fill="#DDD" d="M274.934,192.799c-0.072-0.123,0.328-1.375,0.676-1.258c0.224,0.072,0.144,0.183,0.42,0.206

	c0.271,0.022,0.433-0.298,0.716-0.247c0.443,0.078,0.749,0.49,1.22,0.503c0.354,0.009,0.564-0.343,0.902-0.37

	c0.248-0.025,0.47,0.135,0.717,0.08c0.261-0.061,0.46-0.232,0.682-0.361c0.435-0.256,0.377-0.032,0.877-0.083

	c0.157-0.02,0.29-0.107,0.441-0.135c0.032-0.006,0.066-0.007,0.1-0.004c0.225,0.024,0.313,0.16,0.262,0.423

	c-0.107,0.58-0.574,1.012-0.649,1.604c-0.05,0.386,0.449,0.602,0.319,1.016c-0.316,1.039-0.614,1.094-0.815,1.128

	c-0.284,0.049-0.484-0.043-0.604-0.102c-0.355-0.169-0.603-0.496-0.94-0.7c-0.179-0.109-0.389-0.139-0.579-0.22

	c-0.586-0.25-2.288-1.426-2.817-1.391c-0.188,0.01-0.343,0.153-0.53,0.137c-0.007-0.001-0.017-0.001-0.024-0.002

	C275.21,193.016,275.044,192.989,274.934,192.799z M239.411,142.092c0,0,0,0-0.001,0.001c-0.038,0.051-0.071,0.104-0.099,0.157

	c-0.053,0.106-0.019,0.236,0.08,0.302c0.101,0.066,0.232,0.047,0.31-0.044c0.094-0.11,0.214-0.252,0.37-0.438

	c0.146-0.176,0.196-0.237,0.412-0.331c0.169-0.073,0.343-0.14,0.518-0.197c0.066-0.022,0.14-0.01,0.195,0.032

	s0.088,0.109,0.086,0.179c-0.017,0.401,0.118,0.838-0.286,1.153c-0.231,0.182-0.413,0.324-0.551,0.441

	c-0.136,0.114-0.173,0.308-0.09,0.464c0.085,0.157,0.266,0.233,0.437,0.184c0,0,0,0,0.021,0.014c0.015,0.011,0.026,0.027,0.03,0.046

	c0.113,0.476,0.128,0.476,0.757,0.096c0.02-0.012,0.043-0.015,0.065-0.009c0.011,0.003,0.02,0.01,0.025,0.02

	c0.086,0.167,0.224,0.3,0.393,0.381c0.234,0.114,0.409,0.331,0.465,0.595c0.003,0.015,0.007,0.031,0.011,0.049

	c0.005,0.015,0.009,0.03,0.014,0.045c0.214,0.655,0.041,1.373-0.446,1.859c-0.488,0.486-1.208,0.655-1.861,0.437

	c0,0-0.001,0-0.002,0c-0.109-0.036-0.229,0.004-0.295,0.099s-0.06,0.221,0.013,0.31c0.064,0.08,0.141,0.154,0.139,0.265

	c-0.011,0.407-0.523,0.254-0.682,0.525c-0.002,0.004-0.004,0.005-0.006,0.008c-0.01,0.019-0.017,0.041-0.02,0.065

	c-0.005,0.052,0.016,0.104,0.055,0.14c0.039,0.036,0.093,0.049,0.145,0.038c0.235-0.052,0.425-0.25,0.673-0.271

	c0.468-0.031,0.115,1.142-0.039,1.314c-0.171,0.191-1.354,0.611-1.729,0.664c-0.24,0.037-0.4,0.059-0.48,0.145

	c-0.075,0.085-0.124,0.577,0.208,0.737c0.506,0.241,0.977-0.201,1.479-0.071c0,0,0,0,0.001,0c0.475,0.124,0.905,0.38,1.241,0.735

	c0.028,0.031,0.064,0.05,0.1,0.064c0.163,0.065,0.346,0.062,0.507-0.007c0.039-0.017,0.078-0.04,0.11-0.069

	c0.133-0.117,0.272-0.157,0.415-0.162c0.107-0.004,0.207,0.064,0.241,0.167c0.035,0.104,0,0.217-0.09,0.281

	c-0.366,0.262-0.733,0.528-1.244,0.47c-0.272-0.031-0.548-0.033-0.82-0.004c-0.838,0.089-1.629,0.461-2.235,1.069

	c-0.203,0.203-0.418,0.419-0.611,0.618c-0.104,0.107-0.113,0.274-0.02,0.391c0.093,0.117,0.258,0.146,0.385,0.068

	c0.088-0.053,0.185-0.113,0.292-0.178c0.358-0.222,1.017-0.49,1.375,0.2c0.005,0.001,0.011,0.003,0.016,0.004

	c0.053,0.016,0.11,0.005,0.155-0.028c0.484-0.363,0.729-1.041,1.438-1.102c0.504-0.039,0.879,0.454,1.396,0.346

	c0.579-0.121,1.059-0.565,1.687-0.531c0.232,0.013,0.87,0.183,0.932,0.22c0.175,0.107,0.175,0.107,1.116,0.123

	c0.396,0.007,0.683,0.328,1.058,0.387c0.456,0.071,0.874-0.2,1.322-0.162c0.002,0,0.003,0,0.005,0c0.004,0,0.004,0,0.004,0

	c0.012,0,1.357-0.256,1.331-0.812c0-0.011-0.006-0.021-0.016-0.027c-0.006-0.003-0.011-0.007-0.017-0.01

	c-0.473-0.28-0.787-0.768-0.851-1.312c-0.005-0.042,0.021-0.081,0.062-0.093c0.043-0.013,0.091-0.005,0.129,0.025

	c0.027,0.022,0.057,0.044,0.08,0.06c0.146,0.098,0.235,0.112,0.289,0.074c0.322-0.232,0.666-0.45,1.013-0.643

	c0.186-0.103,0.297-0.312,0.401-0.718c0.029-0.125,0.15-0.767-0.666-1.223c-0.005-0.002-0.011-0.006-0.016-0.009

	c-0.067-0.038-1.583-0.818-2.012-0.582c-0.286,0.151-0.286,0.151-0.812-0.121c-0.019-0.078,0.01-0.158,0.072-0.207

	c0.599-0.462,0.598-0.469,0.586-0.6c-0.022-0.288-0.173-0.493-0.345-0.684c-0.151-0.166-0.167-0.412-0.039-0.595

	c0.003-0.003,0.004-0.006,0.006-0.009c0.115-0.156-0.485-1.443-0.492-1.452c-0.04-0.044-0.061-0.067-0.144-0.062

	c-0.251,0.017-0.516,0.024-0.768,0.023c-0.031,0-0.072,0.005-0.132,0.015c-0.007,0.001-0.014-0.002-0.017-0.008

	c-0.014-0.025-0.016-0.054-0.009-0.081c0.08-0.316-0.229-0.519-0.258-0.809c-0.029-0.293,0.051-0.581,0.081-0.87

	c0.024-0.259-0.006-0.555-0.089-0.839c-0.304-1.042-0.255-2.142,0.115-3.137c0.155-0.414,0.369-0.812,0.627-1.17

	c0.597-0.829-2.084-0.723-2.591-0.69c-0.039,0.002-0.077-0.017-0.098-0.051c-0.02-0.034-0.019-0.076,0.003-0.111

	c0.13-0.196,0.147-0.452,0.33-0.622c0.245-0.234,0.578-0.308,0.858-0.48c0.618-0.386,0.101-0.624-0.125-0.683

	c-0.538-0.139-1.104-0.211-1.66-0.212c-0.211,0-0.422,0.029-0.637,0.11c-0.14,0.052-0.303,0.227-0.468,0.456

	c-0.336,0.469-0.732,0.886-1.185,1.245c-0.025,0.019-0.049,0.038-0.072,0.056c-0.126,0.096-0.291,0.114-0.432,0.055

	c-0.083-0.035-0.176-0.035-0.259-0.001c-0.017,0.007-0.033,0.015-0.049,0.023c-0.154,0.081-0.269,0.201-0.352,0.336

	c-0.104,0.167-0.082,0.383,0.052,0.527c0.134,0.144,0.349,0.181,0.522,0.089c0.001,0.002,0.002,0.006,0.003,0.009

	c0.024,0.055,0.023,0.117-0.001,0.171c-0.101,0.221-0.131,0.463-0.222,0.686c-0.01,0.025-0.03,0.042-0.059,0.047

	c-0.04,0.007-0.081-0.011-0.104-0.046c-0.113-0.176-0.167-0.177-0.246-0.161c-0.007,0.002-0.017,0.004-0.024,0.005

	c-0.319,0.066-0.543,0.814-0.53,1.029c0.005,0.074,0.027,0.126,0.062,0.164C239.738,140.923,239.774,141.6,239.411,142.092z

	 M462,255.999C462,369.77,369.771,462,255.999,462C142.229,462,50,369.77,50,255.999C50,142.229,142.229,50,255.999,50

	C369.771,50,462,142.229,462,255.999z M316.954,167.344c-0.01-0.492,0.818-0.481,0.897-1.093c0.036-0.279-0.088-0.555-0.32-0.712

	c-0.297-0.201-0.429-0.142-0.79,0.022c-0.213,0.1-0.456,0.21-0.723,0.208c-0.215-0.003-0.397-0.157-0.435-0.368

	c-0.034-0.189,0.058-0.376,0.222-0.468c0.063-0.035,0.086-0.113,0.054-0.176c0,0-0.001-0.002-0.001-0.002

	c-0.023-0.047-0.066-0.082-0.117-0.094c-0.568-0.139-1.049-0.222-1.445-0.271c-0.747-0.091-1.511-0.032-2.234,0.17

	c-0.595,0.165-0.628,0.26-0.765,0.654c-0.364,1.026-0.512,1.439-0.647,1.618c-0.498,0.655-0.853,1.393-1.052,2.191

	c-0.075,0.304-0.23,0.569-0.585,0.737c0,0-0.005,0-0.036,0c0,0.006-0.212,1.861-0.195,2.059c0.03,0.421,0.274,0.825,0.129,1.264

	c-0.128,0.377-0.653,0.292-0.784,0.663c-0.002,0.006-0.004,0.012-0.007,0.018c-0.217,0.625,0.049,1.572,0.2,2.208

	c0.013,0.056-0.013,0.114-0.064,0.142c-0.05,0.027-0.113,0.018-0.153-0.025c-0.002-0.002-0.004-0.003-0.005-0.005

	c-0.268-0.257-0.401-0.17-0.466-0.056c-0.048,0.084-0.043,0.187,0.012,0.265c0,0.001,0.001,0.001,0.001,0.002l0.767,1.074

	c0.77,1.08,1.81,1.916,3.029,2.432c0.002,0,0.002,0,0.003,0c0.665,0.292,1.303-0.156,1.965-0.081

	c0.733,0.085,1.465-0.042,2.199-0.045c0.25,0,0.755-0.075,1.074-0.211c0.261-0.112,0.284-0.298,0.308-0.515

	c0.002-0.018,0.003-0.037,0.005-0.055c0.014-0.188,0.046-0.214,0.864-0.86c0.587-0.464,1.307-0.714,1.902-1.176

	c1.005-0.787,2.285-0.001,3.372-0.335c0.249-0.076,3.657,1.206,3.878,1.315c0.006,0.003,0.011,0.004,0.015,0.007

	c1.003,0.419,3.694,0.441,4.336,0.622c0.262,0.071,0.656,0.161,1.036,0.151c0.024-0.012,0.052-0.023,0.075-0.035

	c0.533-0.253,0.87-1.088,1.612-0.714c1.289,0.649,4.926,0.081,4.039-2.926c-0.481-1.634-2.633-2.521-3.279-2.754

	c-1.949-0.705-3.225-2.38-4.94-3.433c-0.756-0.463-1.646-0.048-2.429-0.36c-1.762-0.701-1.762-0.701-1.855-1.208

	c-0.007-0.039,0.009-0.079,0.036-0.116c0.476-0.667,0.829-1.4,1.052-2.189c0.002-0.007,0.004-0.014,0.005-0.021

	c0.083-0.279,0.187-0.417-0.118-0.613c-0.402-0.254-1.176-0.01-1.255-0.67c-0.061-0.525,1.073-1.112,1.537-1.38

	c0.39-0.224,0.555-0.52,0.623-0.707c0.106-0.29-0.25-0.682-0.409-0.659c-0.539,0.061-2.023,0.944-2.237,0.968

	c-0.003,0-0.006,0-0.009,0.001c-0.067,0.008-0.133,0.03-0.191,0.064c-0.005,0.002,0,0-0.005,0.002l-3.392,1.961

	c-0.004,0.002-0.008,0.005-0.013,0.008c-0.603,0.442-0.935,1.164-0.88,1.91c0.054,0.746,0.486,1.412,1.146,1.763

	c0.279,0.149,0.682,0.226,0.543,0.51c0,0.001-0.001,0.001-0.001,0.002c-0.069,0.14-1.922,1.897-2.115,1.923

	c-0.5,0.058-0.668-0.186-0.709-0.26c-0.017-0.032-0.031-0.064-0.042-0.097c-0.292-0.837-0.959-1.521-1.904-1.804

	C317.09,167.723,316.959,167.546,316.954,167.344z M420.885,255.999c0-17.073-2.925-34.325-5.916-43.443

	c-0.936-2.858-3.103-5.149-5.906-6.237c-2.805-1.088-5.949-0.859-8.566,0.625c-6.605,3.736-6.398,4.211-8.703,4.093

	c-1.055-0.052-5.791,3.097-7.489-0.515c-0.321-0.68-1.984-3.742-4.293,0.482c-0.624,1.144-4.038,0.281-5.167-0.349

	c-3.324-1.856-7.42-6.194-8.427-7.285c-0.003,0.002-0.006,0.003-0.008,0.004c0,0-0.003,0.005-0.005,0.002

	c-1.135-1.315-4.418,0.483-2.004,4.076c8.088,12.056,9.508,12.162,11.797,13.363c0.002,0,0.003,0,0.004,0

	c1.08-0.814,0.926-1.066,2.331-1.265c0.87-0.123,1.621-0.668,2.008-1.457c0.003-0.007,0.008-0.015,0.012-0.022

	c0.442-0.909,1.282-1.562,2.272-1.766s2.02,0.063,2.786,0.723c0.007,0.007,0.016,0.013,0.023,0.021

	c1.399,1.205,3.204,0.091,4.693,0.799c3.776,1.773,2.336,5.38,1.587,9.651c-0.002,0.012-0.01,0.022-0.019,0.03

	c-0.011,0.007-0.023,0.01-0.035,0.008c-0.35-0.07-0.675,0.201-0.679,0.551c-0.013,1.357,0.854,2.621,0.589,4.003

	c-0.01,0.051-0.041,0.093-0.087,0.116c-0.454,0.225-0.858,0.523-1.206,0.893c-1.079,1.148-1.151,2.597-2.089,3.893

	c-0.88,1.228,0.067,3.968-2.044,3.984c-0.811,0.005-3.509,1.559-3.927,3.333c-0.494,2.105-1.645,3.981-3.299,5.374

	c-1.215,1.022-2.869,2.356-5.147,4.132c-1.085,0.844-5.465,5.572-9.241,6.457c-0.52,0.121-1.061-0.078-1.377-0.506

	c-0.02-0.025-0.037-0.053-0.054-0.08c-2.483-3.856-3.003-8.486-4.957-12.549c-2.307-4.816-8.55-6.089-10.289-11.424

	c-1.468-4.504-2.085-6.401-4.138-7.562c-1.435-0.811-2.632-1.94-3.517-3.329c-1.442-2.263-3.633-5.481-5.431-7.215

	c-0.816-0.788-1.356-1.808-1.544-2.927c-0.084-0.502-0.825-0.465-0.854,0.047c-0.103,1.792,0.229,2.354-0.271,2.735

	c-0.42,0.317-0.937,0.144-1.304-0.236c-1.283-1.324-3.384-3.729-3.912-5.074c-0.002,0.006-0.002,0.013-0.004,0.02

	c-0.136,0.522-0.035,1.08,0.275,1.521c2.778,3.957,16.32,23.511,16.663,25.361c2.256,12.306,11.783,15.254,16.646,19.789

	c0.913,0.854,1.515,1.957,1.75,3.145c0.226,1.133,0.766,2.115,1.615,2.896c0.897,0.83,1.794,0.717,6.873,0.082

	c0.844-0.109,1.391-0.711,1.973-1.25c0.499-0.463,4.622-1.92,5.162-2.26c1.112-0.721-0.271-0.295,2.286-1.508

	c1.001-0.484,2.176-3.496,1.979-0.078c-0.043,0.881,0.449,1.676,0.356,2.562c-0.53,5.189-0.964,6.051-1.262,7.053

	c-0.395,1.326-0.919,2.607-1.249,3.957c-1.556,6.361-4.018,13.145-8.299,18.162c-0.091,0.107-0.186,0.205-0.29,0.303

	c-2.366,2.191-6.684,6.24-10.198,13.127c-2.211,4.334-5.344,8.098-7.654,12.365c-0.777,1.447-0.971,1.809-0.28,3.756

	c0.49,1.389,1.958,7.814,2.185,16.049c0.245,8.979-1.202,10.453-4.077,12.537c-4.604,3.334-7.745,5.607-9.9,7.203

	c-2.527,1.865-4.037,4.807-4.074,7.947c-0.014,1.156-0.286,2.613-1.076,4.369c0.003,0.004,0.005,0.008,0.008,0.014

	c0.166,0.314-5.936,3.367-8.038,5.85c-0.002,0.002-0.003,0.002-0.003,0.004c-0.01,0.061-0.004,0.123,0.015,0.182

	c1.418,4.445-16.568,17.342-20.307,17.312c-2.703-0.02-9.336,1.037-12.499,2.389c-2.13,0.908-7.892-1.047-8.316-2.273

	c-0.064-0.186-0.083-0.521,0.066-0.645c1.41-1.168-3.346-8.041-4.48-8.824c-0.729-0.504-2.111-3.713-2.677-4.514

	c-1.733-2.455,1.249-5.912-0.688-8.357c-0.104-0.129-0.206-0.266-0.302-0.4l-5.604-7.828c-0.871-1.217-3.349-2.656-3.36-4.152

	c0-0.002,0-0.006,0-0.008c-0.015-1.633,2.9-9.506,3.133-9.838c0.268-0.385,0.518-0.801,0.729-1.219

	c0.119-0.234,0.34-0.404,0.773-0.629c1.421-0.727,3.458-2.523,1.129-6.33c-0.136-0.23-0.136,0.773-0.876-4.504

	c-0.484-3.469-5.042-11.324-5.816-12.148c0,0-5.285-2.523-7.709-7.496c0.124-0.285,0.311-0.529,0.552-0.725

	c2.235-1.789,1.835-4.033,2.493-8.859c0.033-0.24,0.075-0.486,0.127-0.723c0.002-0.014,0.005-0.025,0.007-0.037l0.067-0.32

	c0.003-0.012,0.005-0.023,0.008-0.033c0.001-0.004,0.001-0.006,0.002-0.008c0.199-0.951,0.452-2.223-0.849-4.189

	c-0.227-0.344-0.626-0.533-1.036-0.492c-0.021,0.002-0.042,0.004-0.063,0.006c-0.713,0.061-1.343-0.461-1.415-1.174

	c-0.002-0.01-0.003-0.02-0.004-0.025c-0.001-0.012-0.007-0.018-0.015-0.021c-1.046-0.426-2.204-0.484-3.286-0.168

	c-2.385,0.697-7.447,1.736-8.015-1.545c-0.765-4.404-3.774-5.365-5.253-5.266c-6.292,0.443-11.617,5.848-18.115,5.41

	c-0.29-0.014-0.657-0.156-0.93-0.258c-5.609-2.117-11.663-2.16-17.366-3.256c-1.935-0.371-4.723-1.312-6.127-2.693l-7.993-7.859

	c-0.52-0.51-0.982-1.074-1.38-1.684c-2.535-3.896-3.479-12.473-4.155-14.006c-0.1-0.223-0.209-0.449-0.323-0.664l-0.688-1.299

	c-0.008-0.016-0.017-0.027-0.026-0.043c-0.001,0-0.001,0-0.002-0.002c-1.862-2.434-2.442-5.625-1.559-8.559l3.159-10.5

	c0.046-0.154,0.092-0.317,0.131-0.474c0.082-0.335,0.15-0.678,0.197-1.015c0.751-5.217-0.246-7.121-0.735-8.057

	c-0.91-1.744-0.91-1.744,3.6-8.027c8.209-11.447,9.618-12.02,11.256-12.679c0,0,0,0,0,0.004c0.007,0,0.011,0,0.016,0.001

	c3.571,0.405,10.33-3.949,10.205-6.312c-0.036-0.758-0.123-2.334,1.21-4.437c0.516-0.811,1.169-1.543,1.914-2.148l7.38-5.996

	c1.362-1.107,3.282-1.203,4.748-0.235c0,0,0,0,0.001,0c0.997-0.35,2.091-0.307,3.058,0.12c1.263,0.556,2.069,0.169,2.466-0.016

	c4.47-2.144,9.346-2.8,32.002-4.244c0.767-0.049,1.508,0.284,1.979,0.891c0.004,0.005,0.008,0.011,0.013,0.017

	c1.335,1.725,0.338,1.504,1.852,4.052c0.576,0.969,0.01,1.704-1.802,3.531c-0.687,0.693-0.575,1.799-0.351,1.835

	c0.621,0.031,2.094,0.418,3.31,1.054c1.604,0.838,4.146,1.666,6.253,2.275c1.916,0.553,3.622,1.67,4.9,3.2

	c0.83,1,12.046,7.698,11.592-1.41c-0.031-0.636,0.592-1.74,1.636-2.592c3.644-2.966,6.318,0.872,7.318,1.099

	c1.608,0.368,1.814,0.366,2.894,0.344c0.009,0,0.02,0,0.028,0c0.004,0,0.01,0,0.016,0c1,0.018,1.461,1.164,4.66,0.947

	c5.535-0.374,11.121,0.499,16.636-0.476c0.617-0.11,1.479-0.312,1.963-0.711c6.114-5.052-0.085-11.234,0.864-16.803

	c0.003-0.016-0.002-0.032-0.014-0.045c-0.011-0.012-0.027-0.019-0.043-0.017c-0.001,0-0.002,0-0.002,0

	c-1.887,0.148-3.679,0.897-5.113,2.13c-0.516,0.443-1.147,0.762-2.015,0.852c-1.527,0.154-2.719-0.839-4.049-1.343

	c-0.669-0.254-1.417,0.081-1.674,0.749c-0.001,0.005-0.003,0.009-0.005,0.014c-0.514,1.244-6.345,0.329-8.088-2.591

	c-0.529-0.887-1.327-1.574-2.285-1.962c-0.001-0.001-0.004-0.002-0.006-0.003c0.021-0.019,0.042-0.038,0.063-0.058

	c1.719-1.62-0.909-2.868-1.198-4.127c-0.144-0.628,0.186-1.265,0.782-1.509c0.01-0.005,0.022-0.009,0.034-0.014

	c1.43-0.542,2.077-1.316,1.792-1.107c-0.608,0.447-1.324,0.707-2.078,0.75c-0.002,0-0.003,0-0.005,0

	c-0.4,0.022-0.793-0.068-1.139-0.26c-0.846-0.47-1.803-0.716-2.771-0.716c-1.161,0-2.339,0.334-2.577,1.484

	c-0.044,0.214-0.167,0.402-0.345,0.528c0,0-0.001,0-0.002,0.001c-0.148,0.105-0.342,0.125-0.508,0.051

	c-0.295-0.138-0.584-0.103-0.811,0.052c-0.24,0.164-0.373,0.427-0.342,0.789c0.089,1,2.79,2.027,0.603,3.037l-0.015,0.01

	c0,0-0.943,0.55-1.024,0.59c-0.901,0.448-2.075-0.545-2.858-0.592c-0.254-0.014-0.5,0.093-0.76,0.088c-0.006,0-0.014,0-0.021,0

	c-0.153-0.002-0.248-0.063-0.283-0.093c-0.004-0.004-0.007-0.006-0.011-0.009c-0.077-0.066-0.923-0.818-1.057-1.051

	c-0.331-0.562-0.363-0.618-0.54-0.805c-0.14-0.146-0.388-0.333-0.583-0.471c-0.428-0.303-0.697-0.78-0.735-1.303

	c0-0.001,0-0.001,0-0.002c-0.03-0.406-0.078-0.977-0.152-1.603c-0.167-1.402-0.874-2.68-1.972-3.566

	c-0.284-0.229-0.64-0.347-1.001-0.332c-0.23,0.01-0.463-0.053-0.662-0.186c-0.926-0.616-1.542-0.748-1.542-0.748

	c-0.003-0.002-0.006-0.004-0.009-0.006l-7.24-5.28c-0.415-0.302-0.919-0.449-1.431-0.417c-0.424,0.027-0.654-0.373-0.888-0.727

	c-0.466-0.71-1.342-1.031-2.157-0.787c-0.034,0.01-0.067,0.021-0.1,0.034c-0.513,0.195-0.751,0.81-0.476,1.31

	c0.153,0.274,0.319,0.542,0.496,0.798l4.211,6.128c0.699,1.015,1.858,1.616,3.089,1.603c0.503-0.003,0.928,0.375,0.981,0.876

	c0.025,0.242,0.164,0.467,0.389,0.597c2.007,1.155,4.605,1.323,6,3.508c0.014,0.021,0.024,0.045,0.027,0.071

	c0.002,0.007,0.003,0.014,0.003,0.02c0,0.005,0,0.005,0,0.009c0.007,0.164-0.1,0.688-0.187,0.846

	c-0.146,0.273-0.682,0.393-0.839,0.25c-0.112-0.101-0.104-0.341-0.093-0.598c0.004-0.08-0.019-0.18-0.057-0.286

	c-0.209-0.584-0.646-0.702-1.211-0.944c-0.774-0.328-1.668,0.016-2.021,0.779c-0.003,0.008-0.007,0.015-0.01,0.023

	c-0.011,0.021-0.021,0.044-0.028,0.066c-0.336,0.868,0.224,1.131,0.522,1.278c0.47,0.221,1.183,0.562,0.989,1.578

	c-0.079,0.429-0.553,0.276-0.802,0.461c0,0,0.16-0.148-0.68,1.536c-0.295,0.573-0.021,0.708-0.762,1.088

	c-0.625,0.305-0.92-0.098-0.996-0.228c-0.271-0.461,0.104-0.874,0.092-1.318c-0.008-0.201-0.013-0.376,0.567-0.617

	c0.828-0.349-0.048-1.707-0.544-2.476c-0.005-0.008-0.01-0.017-0.015-0.025c-1.017-1.757-0.346-0.334-1.516-1.428

	c-0.722-0.676-2.616-1.807-2.988-2.269c-2.486-3.08-6.562-4.54-8.699-7.976c-0.433-0.696-1.062-1.25-1.807-1.591

	c-0.487-0.223-1.067-0.383-1.709-0.353c-0.617,0.029-3.552,1.705-5.909,3.049c-2.222,1.271-3.826-1.73-5.989-0.87

	c-2.337,0.929-0.956,3.984-2.936,5.118c-2.254,1.289-4.948,1.715-6.936,3.533c-0.08,0.073-0.141,0.184-0.192,0.302

	c-0.609,1.4-1.672,2.008-1.744,2.357c-0.062,0.289-0.087,0.413,0.037,0.816c0.264,0.844-0.001,1.764-0.671,2.34

	c-0.001,0.001-0.003,0.002-0.004,0.003c-0.435,0.384-0.071,1.593-0.468,1.81c-0.736,0.38-1.533-0.036-2.281,0.178

	c-1.127,0.318-1.183,1.779-2.289,2.118c-1.443,0.435-2.839-0.475-4.278-0.159c-3.248,0.708-3.248,0.708-3.37,1.003

	c-0.114,0.266-0.375,0.711-0.834,0.708c-1.686-0.036-1.063-2.147-1.861-3.059c-0.861-0.991-1.101-0.883-1.49-0.718

	c-0.525,0.228-1.406,0.61-1.678,0.452c-0.362-0.222-0.647-0.556-1.068-0.679c-0.288-0.083-0.529-0.281-0.666-0.548

	c-0.241-0.476,0.361-2.399,0.497-2.952c0.083-0.333,0.061-0.684-0.062-1.004c-0.145-0.377-0.502-0.629-0.905-0.639

	c-0.077-0.001-0.151-0.035-0.204-0.093c-0.471-0.519,1.465-2.479,2.002-3.479c0.083-0.155,0.172-0.379,0.236-0.543

	c1.656-4.236,1.653-5.673,1.313-7.087c-0.15-0.625,0.303-1.231,0.944-1.268c0.355-0.019,0.725-0.035,1.03-0.048c0,0,0.001,0,0,0

	c0.687-0.801,1.832-1.027,2.771-0.55c1.278,0.649,3.828,1.574,8.184,1.778c1.055,0.05,2.111,0.272,3.098,0.648

	c0.922,0.351,1.707-0.455,2.051-0.895c0.812-1.038,0.688-2.325,0.852-3.537c0.085-0.64,0.444-1.211,0.983-1.568c0,0,0,0,0.001,0

	c0.143-0.096,0.215-0.268,0.185-0.438c-0.042-0.229-0.229-2.054-0.452-2.072c-0.01-0.001-0.021-0.002-0.029-0.003

	c-1.802-0.195-1.229-2.511-2.412-3.261c-1-0.636-0.958-1.069-3.45-1.34c-0.359-0.037,0.49-1.769,1.937-2.231

	c0.083-0.027,0.174-0.02,0.253,0.02c0.89,0.449,1.884,0.659,2.879,0.611c0.376-0.018,0.725-0.207,0.945-0.513

	c0.221-0.305,0.291-0.694,0.189-1.058c-0.001-0.007-0.003-0.013-0.005-0.019c-0.106-0.378,0.224-0.959,0.648-0.68

	c0.828,0.544,1.244,0.895,2.687,0.687c0.355-0.052,0.646-0.316,0.727-0.667c0.039-0.167,0.146-0.31,0.296-0.395

	c1.62-0.918,2.307-1.326,2.629-1.697c0.769-0.888,1.672-1.627,2.7-2.198c1.466-0.818,2.18-1.349,3.58-2.617

	c0.602-0.544,1.322-0.924,2.113-1.109c0.242-0.057,0.399-0.289,0.362-0.534c-0.007-0.046,0.005-0.095,0.034-0.132

	c0.264-0.348,0.664-0.57,1.102-0.611c1.021-0.096,1.63-0.096,2.058-0.096c0.004-0.004,0.008-0.009,0.011-0.014

	c0.295-0.339,0.726-0.529,1.176-0.516c1.071,0.031,2.476,0.523,2.25-2.409c-0.337-2.638,0.542-5.295,2.381-7.217

	c0.003-0.003,0.006-0.006,0.009-0.009c0.83,0.351,0.646,1.198,0.786,2.092c0.086,0.536-0.078,1.082-0.441,1.482

	c-0.007,0.005-0.011,0.012-0.017,0.019c-3.513,3.897,0.99,3.77,1.111,4.771c0.001,0.005,0.001,0.011,0.003,0.017

	c0.016,0.168,0.109,0.319,0.253,0.41c0.144,0.089,0.319,0.108,0.479,0.051c0.153-0.055,3.624-1.503,3.761-1.416

	c0.657,0.412,0.158,0.625,0.684,1.106c0.004,0.004,0.008,0.008,0.014,0.013c0.786,0.723,1.941,0.872,2.885,0.371

	c1.994-1.06,4.29-1.411,6.511-1.002c1.094,0.201,3.796-2.418,3.296-3.88c0-0.001,0-0.001-0.001-0.002

	c-0.305-0.89-0.356-1.849-0.152-2.768c0.128-0.575-0.107-0.89,0.551-1.324c0.33-0.218,0.749-0.252,1.11-0.09

	c0.465,0.21,1.005,0.222,1.488,0.016c0.64-0.272,1.075-0.88,1.125-1.575c0-0.004,0.001-0.008,0.001-0.012

	c0.012-0.139-0.058-0.274-0.176-0.348c-0.598-0.374-0.935-1.068-0.844-1.782c0.101-0.792,0.703-1.427,1.49-1.568

	c2.298-0.421,2.714,0.871,4.898-1.074c0.132-0.117,0.188-0.298,0.143-0.468c-0.046-0.171-0.182-0.302-0.354-0.339

	c-0.001,0-0.001,0-0.002,0c-1.808-0.393-3.693-0.273-5.438,0.338l-2.107,0.738c-0.004,0.001-0.005,0.002-0.01,0.003

	c-0.002,0.001-0.005,0.003-0.008,0.004c-0.002,0.001-0.003,0.002-0.005,0.003c-0.355,0.231-0.778,0.338-1.2,0.304

	c-1.469-0.118-2.396-1.511-2.97-3.051c-0.667-1.786-0.44-3.791,0.604-5.385c0.519-0.791,0.777-1.805,1.357-2.544

	c0.239-0.303,0.328-0.698,0.242-1.074c-0.239-1.059-2.076-1.531-3.1-1.304c-2.045,0.458-0.675,2.906-1.495,4.186

	c-0.471,0.739-2.444,1.263-2.615,2.267c-0.43,2.576-0.656,3.932-0.483,4.826c0.372,1.919,0.183,3.884-0.558,5.693

	c-0.005,0.012-0.01,0.023-0.014,0.035c-0.587,1.54,0.615,3.15-0.186,4.68c-0.936,1.78-3.109,0.371-3.612,2.518

	c-0.207,0.905-1.98-0.428-2.586-1.032c-0.063-1.769-0.744-2.582-1.24-3.965c-0.401-1.12-1.312-1.982-2.452-2.322

	c-3.031-0.903-3.646,2.06-6.326,1.235c-2.158-0.664-3.671-2.61-3.785-4.866s1.195-4.343,3.275-5.222c0.001,0,0.002,0,0.003-0.001

	c7.087-2.979,8.406-5.481,8.879-7.161c0.106-0.379,0.401-0.676,0.78-0.785c0.003-0.001,0.006-0.002,0.012-0.003

	c0.001,0,0.002-0.001,0.002-0.003c0.076-0.382,0.271-0.73,0.558-0.995c0.727-0.675,1.221-1.576,1.872-2.321

	c0.715-0.817,1.451-2.079,1.451-2.079s0,0,0.001,0c0,0,3.673-3.593,7.546-4.821c1.795-0.562,3.108-0.54,3.538-0.453

	c0.448,0.091,1.11,0.218,2.154,0.42c0,0,0,0.001,0,0.001c-0.056,0.35,0.034,0.708,0.246,0.991c0.492,0.654,2.102,0.493,4.041,1.39

	c2.247,1.041,4.944,0.729,7.371,1.235c0.987,0.207,1.656,1.13,1.54,2.133c-0.117,1.002-0.979,1.75-1.988,1.723

	c-0.7-0.019-1.332,0.412-1.571,1.069c-0.238,0.657-0.029,1.393,0.518,1.828c0.866,0.685,1.854,1.228,2.894,1.595

	c1.223,0.431,3.204,0.745,2.34-0.211c0,0-0.001,0,0,0c-0.309-0.342-0.746-0.538-1.204-0.541c-1.68-0.007-1.152-1.547-0.245-1.136

	c1,0.453,3.792,0.753,1.854-1.114c-0.239-0.231-0.264-0.604-0.058-0.864c0.321-0.407,0.582-0.861,0.772-1.343

	c0.401-1.026,0.324-0.696,1.64-0.297c0.227,0.069,0.461,0.025,0.643-0.102c0.37-0.259,0.866-0.459,0.505-0.733

	c-0.307-0.234,0.322-0.772,0.547-0.695c0.38,0.13,0.802,0.008,1.054-0.307c0.197-0.246,0.256-0.57,0.173-0.864

	c-0.223-0.753,0.395-2.795,1.473-3.192c0.262-0.097,0.547-0.105,0.814-0.024c0.001-0.001,0.002-0.002,0.002-0.003

	c0.223-0.207,0.488-0.369,0.772-0.474c0.482-0.177,1.304-0.53,1.884-1.033c0.593-0.514,1.399-0.71,2.162-0.526

	c0.007,0.002,0.016-0.001,0.021-0.006c0.238-0.262,0.229-0.666-0.021-0.917c-0.452-0.454-1.996-1.241-1.769-1.84

	c0.074-0.194,1.03-0.427,1.161-1.244c0.089-0.561-0.224-1.108-0.752-1.316c-15.967-6.27-33.148-10.11-51.098-11.092

	c-3.305,2.044-6.613,4.326-9.59,6.792c-10.867,9.005-28.033,12.732-27.645,11.732c-1.64,0.021-2.074-0.424-2.074-0.424

	c-0.535,0.137-1.01,0.441-1.456,0.127c-0.004-0.002-0.008-0.005-0.011-0.007c0.019-0.214-0.08-0.42-0.256-0.54

	c-0.574-0.387-1.697,0.522-4.418,1.903c-0.01,0.005-0.021,0.01-0.03,0.015c-0.05,0.026-0.102,0.052-0.15,0.078

	c-1.147,0.609-2.434,0.752-3.304,0.767c-0.627,0.01-1.237,0.13-1.821,0.362c-0.09,0.035-0.189,0.002-0.239-0.079

	c-0.199-0.323,0.795-0.684,1.15-0.82c0.326-0.126,0.172-0.492-1.189,0.286c-0.294,0.167-0.642,0.214-0.971,0.13

	c-1.363-0.349-2.999,0.743-4.079,1.644c-0.168,0.141-0.386,0.221-0.646,0.111c-0.377-0.16-0.71-0.103-0.598,0.48

	c0.128,0.627-3.466,2.218-3.529,1.947c-0.07-0.196-0.274-0.31-0.477-0.267c-0.471,0.1-1.04,0.482-1.354,1.075

	c-0.576,1.087-2.136,1.27-2.9,1.906c-0.788,0.654-1.958,1.306-1.958,1.306c-0.43,0.498-0.722,0.776-1.179,0.794

	c-0.448,0.019-0.709-0.767-0.511-1.067c0.12-0.182,0.982-1.029,0.774-1.074c-0.086-0.017-0.159-0.072-0.199-0.149

	c-0.147-0.281,0.527-0.578,0.354-0.922c-0.116-0.23-1.416-0.307-1.518-0.424c-0.076-0.085-0.093-0.208-0.042-0.312

	c0.808-1.643,0.913-1.747,2.011-2.833c-0.004-0.006-0.009-0.011-0.012-0.017c-0.115-0.17-0.115-0.394,0.002-0.564

	c0.614-0.895,2.648-3.57,5.02-3.894c0.629-0.09,0.223-0.22,0.223-0.22c-0.593-0.232-1.349-0.401-0.917-0.869

	c0.843-0.917,2.133-2.137,3.575-2.854c0.691-0.344,1.338-0.763,1.933-1.255c0.589-0.486,2.571-1.348,4.715-1.444

	c0.003,0,0.006-0.001,0.009-0.001c1.788-0.115,6.518-3.336,6.556-3.38c-0.002-0.001-0.003-0.003-0.005-0.004

	c-0.146-0.139,0.075-0.619,0.03-0.866c-0.019-0.102,0.032-0.205,0.124-0.253c0.464-0.245,1.003-0.336,1.483-0.547

	c0.065-0.028,0.109-0.086,0.121-0.156c0.025-0.181-0.182-0.299-0.353-0.235c-0.979,0.365-1.39,0.515-1.618,0.583

	c-0.125,0.037-0.258-0.018-0.319-0.131c-0.062-0.113-0.036-0.255,0.062-0.339c1.123-0.97,2.636-0.985,3.97-1.446

	c0.58-0.201,0.584-1.435-0.629-1.235c-5.97,0.983-11.394,2.759-17.059,4.632c0.001,0.004,0.003,0.008,0.004,0.012

	c0.04,0.168-1.142,0.733-1.287,0.878c-0.074,0.073-0.103,0.181-0.074,0.281c0.001,0.007,0.003,0.013,0.005,0.02

	c0.072,0.007,0.095,0.096,0.04,0.137c-0.225,0.169-0.651-0.004-0.779,0.238c-0.152,0.289,0.388,0.176,0.49,0.377

	c0.077,0.151,0.05,0.334-0.067,0.455c-0.001,0.001-0.002,0.001-0.002,0.003c-0.177,0.18-1.061,0.569-1.196,0.406

	c-0.123-0.152-0.147-0.285-0.322-0.173c-0.633,0.408-1.032,0.652-1.396,0.716c-1.277,0.222-2.898,0.905-2.898,0.905

	c0.192-0.164,0.797-0.736,0.899-0.952c0.348-0.705,0.727-0.925,1.151-1.039c0.305-0.079,0.353-0.509-1.017,0.01

	c-1.233,0.466-2.373,1.182-3.331,2.087c-0.807,0.759-1.757,1.583-2.441,1.938c0.13-0.221,0.034-0.277-0.059-0.23

	c-0.079,0.041-0.729,0.629-0.988,0.559c-0.818-0.22,0.249-0.685,0.249-1.497c0.085-0.136,0.194-0.244,0.312-0.344

	c-0.002,0.001-0.004,0.001-0.005,0.002c-0.931,0.396-1.771,0.994-2.455,1.739c-0.552,0.602-1.003,1.319-1.597,0.733

	c-0.282-0.276-0.71-0.356-1.074-0.186c-2.275,1.063-4.521,2.18-6.737,3.342c-0.234,0.123-0.456,0.271-0.659,0.442

	c-0.153,0.129-0.255,0.311-0.282,0.509c-0.034,0.237-0.438,0.756-0.587,1.007c-0.067,0.113-0.064,0.254,0.005,0.365

	c0.204,0.313,0.881,0.084,1.237-0.033c0.508-0.167,1.063,0.041,1.338,0.499c0.268,0.448,0.198,1.018-0.165,1.389

	c-0.302,0.309-0.594,0.65-0.854,0.995c-0.545,0.726-1.055,1.488-1.836,1.98c-0.477,0.301-0.932,0.644-1.351,1.02

	c-4.271,3.83-4.411,10.8-7.554,12.203c-0.007,0.003-0.015,0.007-0.021,0.009c-2.41,1.07-3.251,0.146-6.14,1.223

	c-0.562,0.21-1.088,0.058-1.617-0.083c-0.449-0.12-0.814-0.446-0.986-0.878c0,0,0-0.001,0-0.002c-0.634-1.608-2.45-2.399-4.06-1.767

	c-0.27,0.106-0.554,0.153-0.869,0.069c-0.006-0.002-0.011-0.005-0.015-0.009c-0.002-0.002-0.005-0.004-0.008-0.006

	c-0.528,0.152-3.911,1.231-3.671,1.708c0.002,0.003,5.957-1.818,4.618,1.4c-0.002,0.001-0.006,0.002-0.009,0.003

	c-0.223,0.064-0.405,0.221-0.504,0.431c-0.144,0.304-0.319,0.478-0.815,0.591c-0.568,0.131-1.168-0.03-1.597-0.425

	c-0.004-0.004-0.009-0.005-0.013-0.005c-0.303,0.051-0.436,0.801-0.314,1.007c0.157,0.267,0.944,0.265,0.129,0.766

	c-0.479,0.294-1.125,0.45-1.341,0.973c-0.254,0.617-0.568,1.208-0.939,1.762c-0.387,0.581,0.456,0.765-0.202,1.298

	c-0.785,0.636-3.49,0.023-4.434,0.2c-0.002,0-1.628,0.158-2.606,0.501s-2.743,0.783-3.716,1.958

	c-1.675,2.025-1.529,2.45-3.487,1.905c-0.111-0.031-0.229,0.001-0.31,0.085c-19.947,21.165-34.353,47.606-40.913,77.007

	c-0.004,0.024-0.011,0.05-0.017,0.074c-0.433,1.874-0.926,4.166-1.649,8.462c-0.016,0.101-0.015,0.203,0.006,0.303

	c0.099,0.479,0.193,0.605,0.805,0.605c1.45-0.001,2.691,1.026,2.958,2.451c0.068,0.41,0.314,0.697,0.645,0.831

	c0.323,0.132,0.689,0.106,1.033-0.137c0.221-0.156,1.457,0.922,1.537,2.239c0.043,0.711,0.316,1.526,0.455,2.227

	c0.168,0.847-0.054,1.724-0.606,2.389c-0.086,0.104-0.115,0.241-0.083,0.371c0.696,2.71,3.835,14.252,4.484,14.851

	c0.375-0.07,0.682,0.053,0.888,0.286c6.345,7.152,13.506,18.828,13.3,22.486c-1.431,2.682-1.276,2.543-0.091,3.996

	c2.21,2.715,2.171,2.844,1.334,5.635l0.002-0.002c0.488-0.793,1.355-1.273,2.287-1.273c0.932,0.002,1.796,0.484,2.285,1.277

	c0.364,0.59,0.73,1.176,1.225,1.619c1.307,1.172,1.982,2.895,1.821,4.643c0,0.004,2.011,0.02,4.797,2.115

	c3.528,2.652,15.987,16.92,16.476,20.828c0.218,1.742-0.495,3.449-1.388,4.961c-1.029,1.738-4.353,5.354-4.918,7.301

	c-0.279,0.967-1.829,1.406-1.818,1.982c0.017,0.789,0.258,2.438,1.396,5.689c0.338,0.961,1.122,8.086,0.734,10.961

	c-0.229,1.682-0.225,1.982,0.189,3.834c0.134,0.578-1.315,2.23-2.315,1.516c-1.253-0.896-2.297-0.762-2.428-0.5

	c-0.001,0.002-0.001,0.002-0.002,0.004c-1.729,2.836-7.951,3.34-6.566,6.359c0.41,0.893,0.824,1.783,1.18,2.689

	c0.42,1.068,0.651,2.215,0.687,3.359c0.012,0.494,1.731,4.125,3.102,5.559c30.021,31.395,72.311,50.955,119.178,50.955

	C347.063,420.885,420.885,347.062,420.885,255.999z M231.627,150.917c0.685-0.297,1.323-0.707,2.049-0.903

	c0.006-0.002,0.016-0.004,0.021-0.006c1-0.274,1.874-0.003,2.175-0.382c0.294-0.375,0.798-1.056,1.034-1.602

	c0.113-0.271-0.174-0.654,0.186-0.849c0.401-0.22,0.049-0.644,0.154-0.953c0.277-0.824,0.462-0.846,0.789-0.892

	c0.317-0.046,0.613-0.086,0.723-0.256c0.518-0.765-1.313-2.964-2.457-2.67c-1.189,0.306-2.146,2.04-2.544,2.016

	c-0.504-0.027-0.734-0.043-1.072,0.222c-0.261,0.201-0.294,0.534-0.487,0.774c-0.226,0.293-0.527,0.521-0.759,0.811

	c-0.194,0.238-0.265,0.448,0.007,0.694c0.201,0.176,0.312,0.275-0.279,1.04c-0.489,0.629-1.296,0.963-1.636,1.737

	c-0.121,0.281-0.104,0.839-0.064,1.062C229.621,151.567,230.873,151.243,231.627,150.917z"/>

</svg>

