<?xml version="1.0" encoding="UTF-8" standalone="no"?>
<!-- Created with Inkscape (http://www.inkscape.org/) -->

<svg
   xmlns:dc="http://purl.org/dc/elements/1.1/"
   xmlns:cc="http://creativecommons.org/ns#"
   xmlns:rdf="http://www.w3.org/1999/02/22-rdf-syntax-ns#"
   xmlns:svg="http://www.w3.org/2000/svg"
   xmlns="http://www.w3.org/2000/svg"
   xmlns:sodipodi="http://sodipodi.sourceforge.net/DTD/sodipodi-0.dtd"
   xmlns:inkscape="http://www.inkscape.org/namespaces/inkscape"
   width="400"
   height="400"
   viewBox="0 0 105.83333 105.83334"
   version="1.1"
   id="svg8"
   inkscape:version="0.92.1 r15371"
   sodipodi:docname="offline.svg">
  <defs
     id="defs2" />
  <sodipodi:namedview
     id="base"
     pagecolor="#ffffff"
     bordercolor="#666666"
     borderopacity="1.0"
     inkscape:pageopacity="0.0"
     inkscape:pageshadow="2"
     inkscape:zoom="0.98994949"
     inkscape:cx="-227.96385"
     inkscape:cy="395.81229"
     inkscape:document-units="mm"
     inkscape:current-layer="layer1"
     showgrid="false"
     units="px"
     inkscape:window-width="1920"
     inkscape:window-height="1148"
     inkscape:window-x="-8"
     inkscape:window-y="-8"
     inkscape:window-maximized="1" />
  <metadata
     id="metadata5">
    <rdf:RDF>
      <cc:Work
         rdf:about="">
        <dc:format>image/svg+xml</dc:format>
        <dc:type
           rdf:resource="http://purl.org/dc/dcmitype/StillImage" />
        <dc:title></dc:title>
      </cc:Work>
    </rdf:RDF>
  </metadata>
  <g
     inkscape:label="Layer 1"
     inkscape:groupmode="layer"
     id="layer1"
     transform="translate(0,-191.16665)">
    <path
       style="fill:#ffd700;fill-opacity:1;stroke:#002cff;stroke-width:0;stroke-linecap:butt;stroke-linejoin:round;stroke-miterlimit:4;stroke-dasharray:none;stroke-dashoffset:6.04534006;stroke-opacity:1"
       d="M 221.82617 60.476562 A 124.64286 124.64286 0 0 0 164.34961 74.710938 A 70.710674 68.690372 0 0 0 133.33984 67.660156 A 70.710674 68.690372 0 0 0 103.51367 74.15625 L 365.95312 294.36914 A 79.999996 79.999996 0 0 0 382.32617 245.97656 A 79.999996 79.999996 0 0 0 346.25781 179.18945 A 124.64286 124.64286 0 0 0 221.82617 60.476562 z M 81.712891 89.490234 A 70.710674 68.690372 0 0 0 62.628906 136.34961 A 70.710674 68.690372 0 0 0 65 153.82617 A 99.999994 99.999994 0 0 0 33.96875 225.97656 A 99.999994 99.999994 0 0 0 133.96875 325.97656 A 99.999994 99.999994 0 0 0 135.11133 325.93555 L 135.11133 325.97656 L 302.32617 325.97656 L 304.61133 325.97656 L 304.61133 325.89453 A 79.999996 79.999996 0 0 0 347.05859 312.14258 L 81.712891 89.490234 z "
       transform="matrix(0.26458333,0,0,0.26458333,0,191.16665)"
       id="path4485" />
    <rect
       style="fill:#ffd700;fill-opacity:1;stroke:#002cff;stroke-width:0;stroke-linecap:butt;stroke-linejoin:round;stroke-miterlimit:4;stroke-dasharray:none;stroke-dashoffset:6.04534006;stroke-opacity:1"
       id="rect4520"
       width="119.46948"
       height="6.8153729"
       x="141.21353"
       y="150.00304"
       transform="rotate(40)" />
  </g>
</svg>
