<?xml version="1.0" encoding="UTF-8" standalone="no"?>
<!-- Created with Inkscape (http://www.inkscape.org/) -->

<svg
   xmlns:dc="http://purl.org/dc/elements/1.1/"
   xmlns:cc="http://creativecommons.org/ns#"
   xmlns:rdf="http://www.w3.org/1999/02/22-rdf-syntax-ns#"
   xmlns:svg="http://www.w3.org/2000/svg"
   xmlns="http://www.w3.org/2000/svg"
   xmlns:sodipodi="http://sodipodi.sourceforge.net/DTD/sodipodi-0.dtd"
   xmlns:inkscape="http://www.inkscape.org/namespaces/inkscape"
   width="100"
   height="100"
   id="svg2"
   version="1.1"
   inkscape:version="0.92.1 r15371"
   sodipodi:docname="export.svg"
   inkscape:export-filename="C:\Development\git\piskel-website\static\resources\home\features\feature-export-gold@2x.png"
   inkscape:export-xdpi="192"
   inkscape:export-ydpi="192">
  <defs
     id="defs4" />
  <sodipodi:namedview
     id="base"
     pagecolor="#ffffff"
     bordercolor="#666666"
     borderopacity="1.0"
     inkscape:pageopacity="0.0"
     inkscape:pageshadow="2"
     inkscape:zoom="5.6568542"
     inkscape:cx="58.649766"
     inkscape:cy="37.176959"
     inkscape:document-units="px"
     inkscape:current-layer="layer1"
     showgrid="false"
     inkscape:window-width="1920"
     inkscape:window-height="1148"
     inkscape:window-x="-8"
     inkscape:window-y="-8"
     inkscape:window-maximized="1" />
  <metadata
     id="metadata7">
    <rdf:RDF>
      <cc:Work
         rdf:about="">
        <dc:format>image/svg+xml</dc:format>
        <dc:type
           rdf:resource="http://purl.org/dc/dcmitype/StillImage" />
        <dc:title></dc:title>
      </cc:Work>
    </rdf:RDF>
  </metadata>
  <g
     inkscape:label="Layer 1"
     inkscape:groupmode="layer"
     id="layer1"
     transform="translate(0,-952.36218)">
    <path
       style="color:#000000;font-style:normal;font-variant:normal;font-weight:normal;font-stretch:normal;font-size:medium;line-height:normal;font-family:Sans;-inkscape-font-specification:Sans;text-indent:0;text-align:start;text-decoration:none;text-decoration-line:none;letter-spacing:normal;word-spacing:normal;text-transform:none;writing-mode:lr-tb;direction:ltr;baseline-shift:baseline;text-anchor:start;display:inline;overflow:visible;visibility:visible;fill:#ffd700;fill-opacity:1;fill-rule:nonzero;stroke:none;stroke-width:3.99999952;marker:none;enable-background:accumulate"
       d="m 9.719038,979.67074 v 1.55565 40.46041 1.5557 h 1.162481 32.532444 1.16248 v -1.5557 -17.6159 h -2.614305 v 16.5573 H 12.333344 v -38.34315 h 29.628794 v 13.07152 h 2.614305 v -14.13018 -1.55565 h -1.16248 -32.532444 z"
       id="rect3805"
       inkscape:connector-curvature="0" />
    <g
       id="g858"
       transform="matrix(0.87143513,0,0,0.87143513,1.0046873,128.50765)"
       style="fill:#ffd700;fill-opacity:1;stroke-width:1.14753234">
      <path
         sodipodi:nodetypes="cccc"
         inkscape:connector-curvature="0"
         id="rect3807"
         d="M 24.666667,998.36214 40.666668,1022.3622 14,1022.3623 Z"
         style="fill:#ffd700;fill-opacity:1;stroke:none;stroke-width:1.14753234" />
      <path
         sodipodi:nodetypes="cccc"
         inkscape:connector-curvature="0"
         id="rect3807-0"
         d="M 36.666667,1007.6955 46,1022.3537 l -18.666667,0.01 z"
         style="fill:#ffd700;fill-opacity:1;stroke:none;stroke-width:1.14753234" />
    </g>
    <ellipse
       style="fill:#ffd700;fill-opacity:1;stroke:none;stroke-width:1.05945945"
       id="path3851"
       cx="28.89061"
       cy="989.9101"
       rx="4.0666971"
       ry="4.0666924" />
    <text
       xml:space="preserve"
       style="font-style:normal;font-weight:bold;font-size:13.33333333px;line-height:125%;font-family:Tahoma;letter-spacing:0px;word-spacing:0px;fill:#000000;fill-opacity:1;stroke:none;stroke-width:1px;stroke-linecap:butt;stroke-linejoin:miter;stroke-opacity:1;-inkscape-font-specification:'Tahoma Bold';font-stretch:normal;font-variant:normal;"
       x="70.625"
       y="981.86218"
       id="text890"><tspan
         sodipodi:role="line"
         id="tspan888"
         x="70.625"
         y="1000.1088" /></text>
    <text
       xml:space="preserve"
       style="font-style:normal;font-weight:bold;font-size:13.33333333px;line-height:125%;font-family:Tahoma;letter-spacing:0px;word-spacing:0px;fill:#000000;fill-opacity:1;stroke:none;stroke-width:1px;stroke-linecap:butt;stroke-linejoin:miter;stroke-opacity:1;-inkscape-font-specification:'Tahoma Bold';font-stretch:normal;font-variant:normal;"
       x="70"
       y="999.23718"
       id="text898"><tspan
         sodipodi:role="line"
         id="tspan896"
         x="70"
         y="1017.4838" /></text>
    <path
       inkscape:connector-curvature="0"
       style="fill:#ffd700;fill-opacity:1;stroke:#002cff;stroke-width:0;stroke-linecap:butt;stroke-linejoin:round;stroke-miterlimit:4;stroke-dasharray:none;stroke-dashoffset:6.04534006;stroke-opacity:1"
       d="m 62.876581,983.81006 c -1.387978,0 -2.505376,1.1174 -2.505376,2.50538 v 39.54136 c 0,1.388 1.117398,2.5054 2.505376,2.5054 h 24.618042 c 1.387979,0 2.505376,-1.1174 2.505376,-2.5054 v -39.54136 c 0,-1.38798 -1.117397,-2.50538 -2.505376,-2.50538 z m 21.084645,4.02358 c 0.707286,0 1.281623,0.0681 1.724148,0.20424 0.442526,0.13238 0.900748,0.31393 1.373532,0.54465 v 1.97945 h -0.192328 c -0.102122,-0.0794 -0.24963,-0.18987 -0.442527,-0.3336 -0.189113,-0.14751 -0.37501,-0.27232 -0.556561,-0.37444 -0.211806,-0.12103 -0.457087,-0.22618 -0.736975,-0.31317 -0.276106,-0.087 -0.569798,-0.12936 -0.879945,-0.12936 -0.363098,0 -0.693479,0.0567 -0.992279,0.17021 -0.298799,0.11346 -0.565449,0.28632 -0.79995,0.52081 -0.223154,0.22694 -0.402055,0.51496 -0.534435,0.86293 -0.128597,0.34797 -0.192328,0.7521 -0.192328,1.21354 0,0.98717 0.248306,1.71639 0.743783,2.1854 0.495478,0.469 1.171937,0.70293 2.030512,0.70293 0.07565,0 0.165097,-0.002 0.267218,-0.005 0.102121,-0.003 0.18987,-0.009 0.265515,-0.017 v -1.65777 h -1.639047 v -1.58288 h 3.693387 v 4.15974 c -0.370662,0.15128 -0.852902,0.29878 -1.446718,0.44248 -0.590034,0.1438 -1.173071,0.2145 -1.747976,0.2145 -1.327578,0 -2.385478,-0.3815 -3.175973,-1.14546 -0.786712,-0.7678 -1.181203,-1.85577 -1.181203,-3.26277 0,-1.3238 0.394491,-2.38473 1.181203,-3.18279 0.790495,-0.79805 1.869767,-1.19651 3.238947,-1.19651 z m -20.538296,0.16509 h 3.279796 c 0.487913,0 0.907745,0.0454 1.259496,0.13617 0.355534,0.087 0.677594,0.22579 0.965046,0.41869 0.317711,0.21181 0.562993,0.49549 0.736975,0.85101 0.173985,0.35176 0.26041,0.77159 0.26041,1.2595 0,0.39335 -0.0624,0.7678 -0.187222,1.12334 -0.124815,0.35553 -0.303338,0.65357 -0.53784,0.89185 -0.143725,0.14751 -0.302581,0.28367 -0.476566,0.40849 -0.170201,0.12481 -0.36045,0.22958 -0.568474,0.31658 -0.208026,0.087 -0.434961,0.15507 -0.680809,0.20424 -0.242065,0.0491 -0.514389,0.0748 -0.81697,0.0748 h -1.111421 v 2.7623 H 63.42293 Z m 7.648886,0 h 2.604093 l 2.6943,4.83885 v -4.83885 h 1.940306 v 8.44717 h -2.042426 l -3.255969,-5.88902 v 5.88902 h -1.940304 z m -5.526465,1.57607 v 2.53091 h 0.148076 c 0.200461,0 0.389008,-8.7e-4 0.566773,-0.005 0.177767,-0.003 0.332273,-0.0181 0.464653,-0.0409 0.113467,-0.0189 0.232609,-0.0543 0.357424,-0.10723 0.128597,-0.0567 0.228071,-0.11914 0.296152,-0.18722 0.143726,-0.13994 0.240174,-0.28612 0.289343,-0.43741 0.05295,-0.15129 0.07829,-0.35554 0.07829,-0.61273 0,-0.23829 -0.05674,-0.44253 -0.170203,-0.61273 -0.113467,-0.17399 -0.249629,-0.29312 -0.408485,-0.35743 -0.20046,-0.087 -0.393356,-0.13502 -0.578687,-0.14637 -0.181549,-0.0152 -0.428153,-0.0238 -0.742082,-0.0238 z m 1.804143,11.7661 c 0.707285,0 1.281623,0.068 1.724148,0.2042 0.442526,0.1324 0.900748,0.314 1.373532,0.5446 v 1.9795 h -0.192329 c -0.102121,-0.079 -0.249629,-0.1899 -0.442526,-0.3336 -0.189113,-0.1475 -0.37501,-0.2723 -0.556561,-0.3744 -0.211806,-0.1211 -0.457087,-0.2262 -0.736975,-0.3131 -0.276106,-0.087 -0.569799,-0.1295 -0.879945,-0.1295 -0.363098,0 -0.693479,0.057 -0.992279,0.1702 -0.298799,0.1135 -0.56545,0.2864 -0.79995,0.5209 -0.223154,0.2269 -0.402055,0.5149 -0.534435,0.8629 -0.128597,0.348 -0.192328,0.7521 -0.192328,1.2135 0,0.9872 0.248306,1.7164 0.743783,2.1854 0.495478,0.469 1.171937,0.7029 2.030512,0.7029 0.07565,0 0.165097,0 0.267217,-0.01 0.102122,0 0.18987,-0.01 0.265516,-0.016 v -1.6578 h -1.639047 v -1.5828 h 3.693387 v 4.1597 c -0.370663,0.1512 -0.852902,0.2988 -1.446719,0.4425 -0.590033,0.1437 -1.173071,0.2144 -1.747976,0.2144 -1.327577,0 -2.385477,-0.3814 -3.175972,-1.1454 -0.786712,-0.7678 -1.181203,-1.8558 -1.181203,-3.2628 0,-1.3238 0.394491,-2.3847 1.181203,-3.1827 0.790495,-0.7981 1.869765,-1.1966 3.238947,-1.1966 z m 4.403131,0.1651 h 4.549504 v 1.4739 h -1.213542 v 5.4975 h 1.213542 v 1.4757 h -4.549504 v -1.4757 h 1.213541 v -5.4975 h -1.213541 z m 5.967288,0 h 5.65752 v 1.6101 h -3.547014 v 1.5948 h 3.262776 v 1.6118 h -3.262776 v 3.6304 h -2.110506 z m -13.570219,13.7251 h 6.268545 v 1.6101 l -3.880609,5.2252 h 4.108681 v 1.6118 H 63.94545 v -1.5828 l 3.885716,-5.2542 h -3.681472 z m 7.262526,0 h 4.549504 v 1.4739 h -1.213541 v 5.4975 h 1.213541 v 1.4757 H 71.41222 v -1.4757 h 1.213542 v -5.4975 H 71.41222 Z m 5.967288,0 h 3.279796 c 0.487913,0 0.907745,0.045 1.259496,0.1362 0.355534,0.087 0.677594,0.2258 0.965046,0.4186 0.317712,0.2119 0.562992,0.4955 0.736976,0.8511 0.173984,0.3517 0.26041,0.7715 0.26041,1.2594 0,0.3934 -0.0624,0.7679 -0.187223,1.1234 -0.124815,0.3555 -0.303338,0.6536 -0.537839,0.8918 -0.143726,0.1476 -0.302582,0.2837 -0.476566,0.4086 -0.170202,0.1247 -0.36045,0.2295 -0.568475,0.3165 -0.208025,0.087 -0.434961,0.1551 -0.680809,0.2042 -0.242065,0.049 -0.514389,0.075 -0.81697,0.075 h -1.111421 v 2.7623 h -2.122421 z m 2.122421,1.576 v 2.531 h 0.148076 c 0.200461,0 0.389006,0 0.566774,-0.01 0.177767,0 0.332272,-0.018 0.464652,-0.041 0.113468,-0.019 0.232609,-0.054 0.357424,-0.1072 0.128597,-0.057 0.228071,-0.1191 0.296152,-0.1873 0.143726,-0.1398 0.240174,-0.2861 0.289344,-0.4374 0.05295,-0.1512 0.07829,-0.3555 0.07829,-0.6127 0,-0.2383 -0.05674,-0.4425 -0.170202,-0.6128 -0.113468,-0.1739 -0.24963,-0.293 -0.408485,-0.3573 -0.200461,-0.087 -0.393357,-0.1351 -0.578687,-0.1464 -0.18155,-0.015 -0.428154,-0.024 -0.742082,-0.024 z"
       id="rect860" />
    <path
       style="fill:#ffd700;fill-opacity:1;stroke:#002cff;stroke-width:0;stroke-linecap:butt;stroke-linejoin:round;stroke-miterlimit:4;stroke-dasharray:none;stroke-dashoffset:6.04534006;stroke-opacity:1"
       d="m 59.064052,979.83414 c -1.387978,0 -2.505376,1.11739 -2.505376,2.50537 v 13.44257 l 2.084977,1.87562 v -12.81792 c 0,-1.38798 1.117398,-2.50537 2.505376,-2.50537 h 24.618042 c 0.144293,0 0.282907,0.0193 0.4204,0.0425 v -0.0375 c 0,-1.38798 -1.117398,-2.50538 -2.505376,-2.50538 z m -0.420399,21.71786 -2.084977,1.8756 v 18.4533 c 0,1.2437 0.899901,2.2629 2.084977,2.4628 z"
       id="rect860-3-4"
       inkscape:connector-curvature="0" />
    <path
       style="fill:#ffd700;fill-opacity:1;stroke:#002cff;stroke-width:0;stroke-linecap:butt;stroke-linejoin:round;stroke-miterlimit:4;stroke-dasharray:none;stroke-dashoffset:6.04534006;stroke-opacity:1"
       d="m 55.360453,975.82418 c -1.387978,0 -2.505376,1.11739 -2.505376,2.50537 v 14.21699 l 2.084977,1.87562 v -13.59234 c 0,-1.38798 1.117397,-2.50537 2.505376,-2.50537 h 24.618042 c 0.144293,0 0.282908,0.0193 0.420399,0.0425 v -0.0375 c 0,-1.38798 -1.117397,-2.50538 -2.505376,-2.50538 z m -0.420399,28.96322 -2.084977,1.8757 v 11.2095 c 0,1.2438 0.899901,2.2628 2.084977,2.4628 z"
       id="rect860-3-4-6"
       inkscape:connector-curvature="0" />
    <rect
       style="fill:#ffd700;fill-opacity:1;stroke:#002cff;stroke-width:0;stroke-linecap:butt;stroke-linejoin:round;stroke-miterlimit:4;stroke-dasharray:none;stroke-dashoffset:6.04534006;stroke-opacity:1"
       id="rect819"
       width="19.171572"
       height="5.22861"
       x="34.119221"
       y="997.09943" />
    <path
       style="fill:#ffd700;fill-opacity:1;stroke:#002cff;stroke-width:0;stroke-linecap:butt;stroke-linejoin:round;stroke-miterlimit:4;stroke-dasharray:none;stroke-dashoffset:6.04534006;stroke-opacity:1"
       d="m 49.805054,991.87083 8.714351,7.84297 -8.714351,7.8429 z"
       id="rect821"
       inkscape:connector-curvature="0"
       sodipodi:nodetypes="cccc" />
  </g>
</svg>
