<?xml version="1.0" encoding="UTF-8" standalone="no"?>
<!-- Created with Inkscape (http://www.inkscape.org/) -->

<svg
   xmlns:dc="http://purl.org/dc/elements/1.1/"
   xmlns:cc="http://creativecommons.org/ns#"
   xmlns:rdf="http://www.w3.org/1999/02/22-rdf-syntax-ns#"
   xmlns:svg="http://www.w3.org/2000/svg"
   xmlns="http://www.w3.org/2000/svg"
   xmlns:sodipodi="http://sodipodi.sourceforge.net/DTD/sodipodi-0.dtd"
   xmlns:inkscape="http://www.inkscape.org/namespaces/inkscape"
   width="100"
   height="100"
   id="svg2"
   version="1.1"
   inkscape:version="0.92.1 r15371"
   sodipodi:docname="private-gallery.svg"
   inkscape:export-filename="C:\Development\git\piskel-website\static\resources\home\features\feature-private-gallery-gold@2x.png"
   inkscape:export-xdpi="192"
   inkscape:export-ydpi="192">
  <defs
     id="defs4" />
  <sodipodi:namedview
     id="base"
     pagecolor="#ffffff"
     bordercolor="#666666"
     borderopacity="1.0"
     inkscape:pageopacity="0.0"
     inkscape:pageshadow="2"
     inkscape:zoom="5.6568542"
     inkscape:cx="119.3787"
     inkscape:cy="45.031364"
     inkscape:document-units="px"
     inkscape:current-layer="layer1"
     showgrid="false"
     inkscape:window-width="1920"
     inkscape:window-height="1148"
     inkscape:window-x="-8"
     inkscape:window-y="-8"
     inkscape:window-maximized="1" />
  <metadata
     id="metadata7">
    <rdf:RDF>
      <cc:Work
         rdf:about="">
        <dc:format>image/svg+xml</dc:format>
        <dc:type
           rdf:resource="http://purl.org/dc/dcmitype/StillImage" />
        <dc:title></dc:title>
      </cc:Work>
    </rdf:RDF>
  </metadata>
  <g
     inkscape:label="Layer 1"
     inkscape:groupmode="layer"
     id="layer1"
     transform="translate(0,-952.36218)">
    <text
       xml:space="preserve"
       style="font-style:normal;font-weight:bold;font-size:13.33333333px;line-height:125%;font-family:Tahoma;letter-spacing:0px;word-spacing:0px;fill:#000000;fill-opacity:1;stroke:none;stroke-width:1px;stroke-linecap:butt;stroke-linejoin:miter;stroke-opacity:1;-inkscape-font-specification:'Tahoma Bold';font-stretch:normal;font-variant:normal;"
       x="70.625"
       y="981.86218"
       id="text890"><tspan
         sodipodi:role="line"
         id="tspan888"
         x="70.625"
         y="1000.1088" /></text>
    <text
       xml:space="preserve"
       style="font-style:normal;font-weight:bold;font-size:13.33333333px;line-height:125%;font-family:Tahoma;letter-spacing:0px;word-spacing:0px;fill:#000000;fill-opacity:1;stroke:none;stroke-width:1px;stroke-linecap:butt;stroke-linejoin:miter;stroke-opacity:1;-inkscape-font-specification:'Tahoma Bold';font-stretch:normal;font-variant:normal;"
       x="70"
       y="999.23718"
       id="text898"><tspan
         sodipodi:role="line"
         id="tspan896"
         x="70"
         y="1017.4838" /></text>
    <path
       style="fill:#ffd700;fill-opacity:1;stroke:#002cff;stroke-width:0;stroke-linecap:butt;stroke-linejoin:round;stroke-miterlimit:4;stroke-dasharray:none;stroke-dashoffset:6.04534006;stroke-opacity:1"
       d="M 11.75,6 C 8.5645,6 6,8.5645 6,11.75 v 76.5 C 6,91.4355 8.5645,94 11.75,94 h 76.5 C 91.4355,94 94,91.4355 94,88.25 V 11.75 C 94,8.5645 91.4355,6 88.25,6 Z m 37.826172,4 C 56.621858,10 62.767247,14.332287 66,20.074219 V 14 H 86 V 34 H 70 v 5.955078 H 68.5 V 40 H 86 V 60 H 76 v 6 H 86 V 86 H 66 v -8 h -6 v 8 H 40 v -8 h -6 v 8 H 14 V 66 H 24 V 60 H 14 V 40 H 31 V 39.95508 H 30 V 34 H 14 V 14 h 20 v 4.695312 C 37.39519,13.716949 43.109017,10 49.576172,10 Z"
       transform="translate(0,952.36218)"
       id="rect5292"
       inkscape:connector-curvature="0"
       sodipodi:nodetypes="ssssssssssccccccccccccccccccccccccccccccccccccs" />
    <path
       inkscape:connector-curvature="0"
       style="fill:#ffd700;fill-opacity:1;stroke-width:1"
       id="lock-3-icon"
       d="m 42,992.36218 h -8 v -9.65095 c 0,-8.76144 7.23854,-16.34905 16,-16.34905 8.7616,0 16.284056,7.59222 16,16.34905 v 9.65095 h -8 v -9.65095 c 0,-4.80295 -3.19692,-8.34905 -8,-8.34905 -4.80293,0 -8,3.5461 -8,8.34905 z m 30,4 v 30.00002 H 28 v -30.00002 z m -18.32606,12.24162 c 0,-2.141 -1.73562,-3.8767 -3.87669,-3.8767 -2.14109,0 -3.87669,1.7357 -3.87669,3.8767 0,1.1215 0.47626,2.1313 1.23753,2.839 0.6296,0.5852 0.98798,1.4072 0.98798,2.2664 v 3.2942 h 3.30236 v -3.2939 c 0,-0.86 0.3581,-1.6812 0.98798,-2.2666 0.76127,-0.7078 1.23753,-1.7176 1.23753,-2.8391 z"
       sodipodi:nodetypes="ccsssccsssccccccssscsccscs" />
  </g>
</svg>
