<?xml version="1.0" encoding="UTF-8" standalone="no"?>
<!-- Created with Inkscape (http://www.inkscape.org/) -->

<svg
   xmlns:dc="http://purl.org/dc/elements/1.1/"
   xmlns:cc="http://creativecommons.org/ns#"
   xmlns:rdf="http://www.w3.org/1999/02/22-rdf-syntax-ns#"
   xmlns:svg="http://www.w3.org/2000/svg"
   xmlns="http://www.w3.org/2000/svg"
   xmlns:sodipodi="http://sodipodi.sourceforge.net/DTD/sodipodi-0.dtd"
   xmlns:inkscape="http://www.inkscape.org/namespaces/inkscape"
   width="40"
   height="40"
   viewBox="0 0 10.583333 10.583334"
   version="1.1"
   id="svg8"
   inkscape:version="0.92.1 r15371"
   sodipodi:docname="calendar-icon.svg">
  <defs
     id="defs2">
    <marker
       inkscape:stockid="EmptyDiamondL"
       orient="auto"
       refY="0"
       refX="0"
       id="EmptyDiamondL"
       style="overflow:visible"
       inkscape:isstock="true">
      <path
         id="path5146"
         d="M 0,-7.0710768 -7.0710894,0 0,7.0710589 7.0710462,0 Z"
         style="fill:#ffffff;fill-rule:evenodd;stroke:#000000;stroke-width:1.00000003pt"
         transform="scale(0.8)"
         inkscape:connector-curvature="0" />
    </marker>
  </defs>
  <sodipodi:namedview
     id="base"
     pagecolor="#ffffff"
     bordercolor="#666666"
     borderopacity="1.0"
     inkscape:pageopacity="0.0"
     inkscape:pageshadow="2"
     inkscape:zoom="15.839192"
     inkscape:cx="-3.7684466"
     inkscape:cy="24.852917"
     inkscape:document-units="mm"
     inkscape:current-layer="layer1"
     showgrid="false"
     units="px"
     inkscape:object-nodes="false"
     inkscape:window-width="1920"
     inkscape:window-height="1148"
     inkscape:window-x="-8"
     inkscape:window-y="-8"
     inkscape:window-maximized="1" />
  <metadata
     id="metadata5">
    <rdf:RDF>
      <cc:Work
         rdf:about="">
        <dc:format>image/svg+xml</dc:format>
        <dc:type
           rdf:resource="http://purl.org/dc/dcmitype/StillImage" />
        <dc:title></dc:title>
      </cc:Work>
    </rdf:RDF>
  </metadata>
  <g
     inkscape:label="Layer 1"
     inkscape:groupmode="layer"
     id="layer1"
     transform="translate(0,-286.41665)">
    <path
       style="color:#000000;font-style:normal;font-variant:normal;font-weight:normal;font-stretch:normal;font-size:medium;line-height:normal;font-family:sans-serif;font-variant-ligatures:normal;font-variant-position:normal;font-variant-caps:normal;font-variant-numeric:normal;font-variant-alternates:normal;font-feature-settings:normal;text-indent:0;text-align:start;text-decoration:none;text-decoration-line:none;text-decoration-style:solid;text-decoration-color:#000000;letter-spacing:normal;word-spacing:normal;text-transform:none;writing-mode:lr-tb;direction:ltr;text-orientation:mixed;dominant-baseline:auto;baseline-shift:baseline;text-anchor:start;white-space:normal;shape-padding:0;clip-rule:nonzero;display:inline;overflow:visible;visibility:visible;opacity:1;isolation:auto;mix-blend-mode:normal;color-interpolation:sRGB;color-interpolation-filters:linearRGB;solid-color:#000000;solid-opacity:1;vector-effect:none;fill:#dddddd;fill-opacity:1;fill-rule:nonzero;stroke:none;stroke-width:2.00000024;stroke-linecap:round;stroke-linejoin:round;stroke-miterlimit:4;stroke-dasharray:none;stroke-dashoffset:0;stroke-opacity:1;color-rendering:auto;image-rendering:auto;shape-rendering:auto;text-rendering:auto;enable-background:accumulate"
       d="m 10.172852,1.9980469 c -0.635579,0 -1.1738283,0.4311357 -1.1738283,1.1816406 V 3.9980469 H 5.1816406 c -0.6355789,0 -1.1796875,0.5460752 -1.1796875,1.1816406 V 34.818359 C 4.0019531,35.453925 4.5460617,36 5.1816406,36 H 34.820312 c 0.635579,0 1.181641,-0.546075 1.181641,-1.181641 V 5.1796875 c 0,-0.6355654 -0.546062,-1.1816406 -1.181641,-1.1816406 H 31.000977 V 3.1796875 c 0,-0.6355654 -0.544109,-1.1816406 -1.179688,-1.1816406 h -3.640624 c -0.635579,0 -1.181641,0.5460752 -1.181641,1.1816406 V 3.9980469 H 15.000977 V 3.1796875 c 0,-0.6355654 -0.546061,-1.1816406 -1.18164,-1.1816406 z M 7.0000001,7.0000001 H 8.9990237 V 8.8183594 C 8.9990237,9.4539247 9.537273,10 10.172852,10 h 3.646485 c 0.635579,0 1.18164,-0.5460753 1.18164,-1.1816406 V 7.0000001 h 9.998047 V 8.8183594 C 24.999024,9.4539247 25.545086,10 26.180665,10 h 3.640624 c 0.635579,0 0.967345,-0.5825966 1.179688,-1.1816406 V 7.0000001 H 33 V 12 H 7.0000001 Z m 0,7.7382809 H 33 V 33 H 7.0000001 Z"
       transform="matrix(0.26458333,0,0,0.26458333,0,286.41665)"
       id="rect5390"
       inkscape:connector-curvature="0"
       sodipodi:nodetypes="sscsssssssscssssccsssccssssccsssscccccccccc" />
    <path
       style="color:#000000;font-style:normal;font-variant:normal;font-weight:normal;font-stretch:normal;font-size:medium;line-height:normal;font-family:sans-serif;font-variant-ligatures:normal;font-variant-position:normal;font-variant-caps:normal;font-variant-numeric:normal;font-variant-alternates:normal;font-feature-settings:normal;text-indent:0;text-align:start;text-decoration:none;text-decoration-line:none;text-decoration-style:solid;text-decoration-color:#000000;letter-spacing:normal;word-spacing:normal;text-transform:none;writing-mode:lr-tb;direction:ltr;text-orientation:mixed;dominant-baseline:auto;baseline-shift:baseline;text-anchor:start;white-space:normal;shape-padding:0;clip-rule:nonzero;display:inline;overflow:visible;visibility:visible;opacity:1;isolation:auto;mix-blend-mode:normal;color-interpolation:sRGB;color-interpolation-filters:linearRGB;solid-color:#000000;solid-opacity:1;vector-effect:none;fill:#dddddd;fill-opacity:1;fill-rule:evenodd;stroke:none;stroke-width:3;stroke-linecap:butt;stroke-linejoin:miter;stroke-miterlimit:4;stroke-dasharray:none;stroke-dashoffset:0;stroke-opacity:1;color-rendering:auto;image-rendering:auto;shape-rendering:auto;text-rendering:auto;enable-background:accumulate"
       d="m 13.242188,16.81489 -0.0059,0.0078 -4.2382811,4.236328 2.1269531,2.119141 2.111328,-2.115234 v 9.755859 h 2.996094 V 16.822702 H 13.25 Z"
       transform="matrix(0.26458333,0,0,0.26458333,0,286.41665)"
       id="path5422-2"
       inkscape:connector-curvature="0"
       sodipodi:nodetypes="cccccccccc" />
    <path
       style="color:#000000;font-style:normal;font-variant:normal;font-weight:normal;font-stretch:normal;font-size:medium;line-height:normal;font-family:sans-serif;font-variant-ligatures:normal;font-variant-position:normal;font-variant-caps:normal;font-variant-numeric:normal;font-variant-alternates:normal;font-feature-settings:normal;text-indent:0;text-align:start;text-decoration:none;text-decoration-line:none;text-decoration-style:solid;text-decoration-color:#000000;letter-spacing:normal;word-spacing:normal;text-transform:none;writing-mode:lr-tb;direction:ltr;text-orientation:mixed;dominant-baseline:auto;baseline-shift:baseline;text-anchor:start;white-space:normal;shape-padding:0;clip-rule:nonzero;display:inline;overflow:visible;visibility:visible;opacity:1;isolation:auto;mix-blend-mode:normal;color-interpolation:sRGB;color-interpolation-filters:linearRGB;solid-color:#000000;solid-opacity:1;vector-effect:none;fill:#dddddd;fill-opacity:1;fill-rule:nonzero;stroke:none;stroke-width:0.79374999;stroke-linecap:round;stroke-linejoin:round;stroke-miterlimit:4;stroke-dasharray:none;stroke-dashoffset:0;stroke-opacity:1;color-rendering:auto;image-rendering:auto;shape-rendering:auto;text-rendering:auto;enable-background:accumulate"
       d="m 6.5722656,290.86768 c -0.4435626,0 -0.8315876,0.24505 -1.0859375,0.58593 -0.2543498,0.34089 -0.3964844,0.78377 -0.3964843,1.26563 0,0.48186 0.1421345,0.92474 0.3964843,1.26563 0.2543499,0.34088 0.6423749,0.58593 1.0859375,0.58593 0.4435626,0 0.8315877,-0.24505 1.0859375,-0.58593 0.2543499,-0.34089 0.3964844,-0.78377 0.3964844,-1.26563 0,-0.48186 -0.1421345,-0.92474 -0.3964844,-1.26563 -0.2543498,-0.34088 -0.6423749,-0.58593 -1.0859375,-0.58593 z m 0,0.79297 c 0.1560985,0 0.3105927,0.0818 0.4492188,0.26757 0.138626,0.1858 0.2402344,0.46919 0.2402344,0.79102 0,0.32183 -0.1016084,0.60522 -0.2402344,0.79102 -0.1386261,0.18579 -0.2931203,0.26757 -0.4492188,0.26757 -0.1560984,0 -0.3105927,-0.0818 -0.4492187,-0.26757 -0.1386261,-0.1858 -0.2402344,-0.46919 -0.2402344,-0.79102 0,-0.32183 0.1016083,-0.60522 0.2402344,-0.79102 0.138626,-0.18579 0.2931203,-0.26757 0.4492187,-0.26757 z"
       id="path5439"
       inkscape:connector-curvature="0"
       sodipodi:nodetypes="scscscscsscscscscs" />
  </g>
</svg>
