<?xml version="1.0" encoding="utf-8"?>

<!-- The icon can be used freely in both personal and commercial projects with no attribution required, but always appreciated. 
You may NOT sub-license, resell, rent, redistribute or otherwise transfer the icon without express written permission from iconmonstr.com -->

<!DOCTYPE svg PUBLIC "-//W3C//DTD SVG 1.1//EN" "http://www.w3.org/Graphics/SVG/1.1/DTD/svg11.dtd">
<svg version="1.1" xmlns="http://www.w3.org/2000/svg" xmlns:xlink="http://www.w3.org/1999/xlink" x="0px" y="0px"
	 width="32px" height="32px" viewBox="0 0 32 32" enable-background="new 0 0 32 32" xml:space="preserve">
<path id="logout-icon" fill="#DDD" d="M25.542,8.354c-1.47-1.766-2.896-2.617-3.025-2.695c-0.954-0.565-2.181-0.321-2.739,0.732c-0.556,0.961-0.32,2.194,0.705,2.763c0,0,0.001,0,0.002,0.001c0.001,0,0.002,0.001,0.003,0.002c0.001,0,0.003,0.001,0.004,0.001c0.102,0.062,1.132,0.729,2.08,1.925c1.003,1.261,1.933,3.017,1.937,5.438c-0.001,2.519-1.005,4.783-2.64,6.438c-1.637,1.652-3.877,2.668-6.368,2.669c-2.491-0.001-4.731-1.017-6.369-2.669c-1.635-1.654-2.639-3.919-2.64-6.438c0.005-2.499,0.995-4.292,2.035-5.558c0.517-0.625,1.043-1.098,1.425-1.401c0.191-0.152,0.346-0.263,0.445-0.329c0.049-0.034,0.085-0.058,0.104-0.069c0.005-0.004,0.009-0.006,0.012-0.008s0.004-0.002,0.004-0.002l0,0c0.946-0.567,1.262-1.802,0.705-2.763c-0.559-0.965-1.785-1.288-2.739-0.732c-0.128,0.079-1.555,0.93-3.032,2.696c-1.462,1.751-2.974,4.511-2.97,8.157C2.49,23.775,8.315,29.664,15.5,29.667c7.186-0.003,13.01-5.892,13.012-13.155C28.516,12.864,27.005,10.105,25.542,8.354zM15.5,17.523c1.105,0,2.002-0.907,2.002-2.023h-0.001V3.357c0-1.118-0.896-2.032-2.001-2.032s-2.002,0.906-2.002,2.032V15.5C13.498,16.616,14.395,17.523,15.5,17.523z"/>
</svg>
